<svg xmlns="http://www.w3.org/2000/svg" xmlns:xlink="http://www.w3.org/1999/xlink" width="512" height="512" viewBox="0 0 512 512">
  <defs>
    <clipPath id="clip-path">
      <rect id="長方形_3" data-name="長方形 3" width="466" height="466" fill="none"/>
    </clipPath>
    <linearGradient id="linear-gradient" x1="0.5" x2="0.5" y2="1" gradientUnits="objectBoundingBox">
      <stop offset="0" stop-color="#ef1d66"/>
      <stop offset="1" stop-color="#eff556"/>
    </linearGradient>
  </defs>
  <g id="グループ_5" data-name="グループ 5" transform="translate(-174 -721)">
    <rect id="長方形_4" data-name="長方形 4" width="512" height="512" rx="80" transform="translate(174 721)" fill="#222"/>
    <g id="グループ_4" data-name="グループ 4" transform="translate(-6 -455)">
      <g id="マスクグループ_2" data-name="マスクグループ 2" transform="translate(203 1199)" clip-path="url(#clip-path)">
        <g id="グループ_1" data-name="グループ 1" transform="translate(73.939 0)">
          <g id="パス_5" data-name="パス 5" transform="translate(23.901 -21.205)" fill="#fff">
            <path d="M 279.28564453125 242.8350982666016 L -22.77987480163574 242.8350982666016 C -22.52827262878418 241.0262756347656 -21.85263061523438 236.9236907958984 -20.45942115783691 231.1549682617188 C -18.87901306152344 224.611328125 -16.02451324462891 214.5885925292969 -11.40037631988525 204.0013275146484 C -6.299785614013672 192.3230590820312 -0.1293764263391495 182.3620910644531 6.939441680908203 174.3950958251953 C 11.10457801818848 169.7007751464844 15.63135051727295 165.6567840576172 20.39407730102539 162.3754119873047 C 25.61453247070312 158.7787322998047 31.24957847595215 156.0087280273438 37.14266967773438 154.1423187255859 L 38.84235000610352 153.6040496826172 L 37.49684906005859 152.434326171875 C 32.66021347045898 148.2295989990234 29.80157852172852 142.8396911621094 29.00035095214844 136.4143676757812 C 28.24198722839355 130.3330535888672 29.31162452697754 123.360595703125 32.179443359375 115.6907348632812 C 34.06175994873047 110.6565093994141 36.7164421081543 105.346549987793 40.0697135925293 99.9083251953125 C 43.34439468383789 94.59759521484375 47.28289794921875 89.16719055175781 51.77585220336914 83.76795959472656 C 60.69353103637695 73.05136871337891 71.70075988769531 62.58814239501953 83.60749053955078 53.50946044921875 C 89.66344451904297 48.89186859130859 95.92125701904297 44.65273284912109 102.2071228027344 40.90987014770508 C 108.6836242675781 37.05345916748047 115.199348449707 33.71905136108398 121.5733032226562 30.9992790222168 C 128.1988067626953 28.17218780517578 134.7119445800781 25.99282455444336 140.9317626953125 24.5217342376709 C 147.1679077148438 23.04678535461426 153.1732025146484 22.26958274841309 158.7949981689453 22.20927047729492 C 160.2329406738281 26.37206840515137 161.6774597167969 31.78165817260742 163.3367156982422 37.99527740478516 C 166.6670837402344 50.46677780151367 170.8117523193359 65.98796081542969 176.9487152099609 78.2056884765625 C 178.5558929443359 81.40541839599609 180.2521667480469 84.27850341796875 181.9903564453125 86.74514007568359 C 183.8888092041016 89.43932342529297 185.9051208496094 91.74546051025391 187.9832611083984 93.59954833984375 C 190.2326202392578 95.6063232421875 192.62744140625 97.14950561523438 195.1013031005859 98.18623352050781 C 197.7442626953125 99.29377746582031 200.5518035888672 99.85536956787109 203.4459838867188 99.85536956787109 C 207.2095794677734 99.85536956787109 211.2350769042969 98.90518951416016 215.4106292724609 97.03128051757812 C 219.5709838867188 95.16421508789062 224.0051422119141 92.32361602783203 228.6017761230469 88.58177947998047 C 231.40478515625 91.51177215576172 242.9780731201172 103.837272644043 253.6923980712891 118.5620956420898 C 260.8587036132812 128.4108734130859 266.2417602539062 137.3860473632812 269.6919555664062 145.2382354736328 C 273.9442749023438 154.9160003662109 275.2413635253906 162.8536834716797 273.547119140625 168.8306884765625 C 272.6900329589844 171.8545532226562 271.0376281738281 174.4292297363281 268.6358642578125 176.4831848144531 C 266.0198364257812 178.7203216552734 262.4353942871094 180.4153289794922 257.9820861816406 181.5210571289062 L 255.8664398193359 182.0463714599609 L 257.6445922851562 183.3073272705078 C 271.5294799804688 193.1537322998047 281.4967041015625 202.3091430664062 287.2694091796875 210.5192260742188 C 291.8914489746094 217.0928192138672 293.8370361328125 223.0645446777344 293.0520629882812 228.2684631347656 C 292.69189453125 230.6565551757812 291.747314453125 232.9048309326172 290.2444763183594 234.9508666992188 C 289.0274047851562 236.6079559326172 287.4424743652344 238.1402282714844 285.5337524414062 239.5051422119141 C 282.6605224609375 241.5597991943359 279.93115234375 242.6036529541016 279.28564453125 242.8350982666016 Z" stroke="none"/>
            <path d="M 158.0827484130859 23.22093200683594 C 152.7436676025391 23.33657836914062 147.0592346191406 24.10006713867188 141.1619415283203 25.494873046875 C 134.9974822998047 26.95291137695312 128.5389404296875 29.11431884765625 121.9657592773438 31.91905212402344 C 115.6326751708984 34.62136840820312 109.1570281982422 37.93536376953125 102.7187652587891 41.76905822753906 C 96.46553039550781 45.49250793457031 90.23953247070312 49.71009826660156 84.21380615234375 54.30464172363281 C 72.36593627929688 63.3385009765625 61.41485595703125 73.74790954589844 52.54449462890625 84.4075927734375 C 48.08161926269531 89.77069091796875 44.1708984375 95.16250610351562 40.9208984375 100.4331817626953 C 37.60162353515625 105.8162384033203 34.9757080078125 111.0674591064453 33.1160888671875 116.0409545898438 C 30.30535888671875 123.5581359863281 29.25448608398438 130.37109375 29.99261474609375 136.2906036376953 C 30.37020874023438 139.3186340332031 31.22817993164062 142.1318206787109 32.54263305664062 144.6520538330078 C 33.9041748046875 147.2625427246094 35.79171752929688 149.626953125 38.15289306640625 151.6796417236328 L 40.84390258789062 154.01904296875 L 37.444580078125 155.0956878662109 C 31.67034912109375 156.9244079589844 26.146484375 159.6356811523438 21.0264892578125 163.1541442871094 C 16.34521484375 166.3710479736328 11.89218139648438 170.3371887207031 7.790985107421875 174.9423217773438 C 0.802764892578125 182.7892303466797 -5.30682373046875 192.6116333007812 -10.36801147460938 204.1367340087891 C -14.97796630859375 214.6343231201172 -17.8336181640625 224.5942840576172 -19.41738891601562 231.1011962890625 C -20.59384155273438 235.9344482421875 -21.27493286132812 239.6723480224609 -21.61758422851562 241.8350982666016 L 279.1070556640625 241.8350982666016 C 279.9305725097656 241.5264434814453 282.4484558105469 240.5010375976562 285.0487670898438 238.6221923828125 C 286.8520812988281 237.3192291259766 288.3442687988281 235.8639526367188 289.4838562011719 234.2968292236328 C 290.8682556152344 232.3930053710938 291.7373046875 230.3065490722656 292.0668640136719 228.0954132080078 C 292.8032531738281 223.1545562744141 290.9090270996094 217.4275970458984 286.436767578125 211.0735931396484 C 280.7276306152344 202.9623718261719 270.8458862304688 193.8948669433594 257.0661315917969 184.1230163574219 L 253.5098571777344 181.6011047363281 L 257.7410888671875 180.5505523681641 C 262.0421142578125 179.4826049804688 265.4889526367188 177.8585052490234 267.9857177734375 175.7233276367188 C 270.2667236328125 173.7727355957031 271.7711181640625 171.4290466308594 272.5849304199219 168.5584106445312 C 275.5645446777344 158.0476379394531 268.7565307617188 140.9689636230469 252.8969421386719 119.1685943603516 C 242.8894805908203 105.4124755859375 232.1237487792969 93.75181579589844 228.5119781494141 89.93809509277344 C 224.1039428710938 93.44955444335938 219.8407897949219 96.13923645019531 215.820068359375 97.94364929199219 C 211.514892578125 99.875732421875 207.3516235351562 100.8553771972656 203.4459838867188 100.8553771972656 C 197.58544921875 100.8553771972656 192.1590881347656 98.66523742675781 187.3175811767578 94.34573364257812 C 185.1825866699219 92.44096374511719 183.1152038574219 90.07754516601562 181.1728973388672 87.32118225097656 C 179.4063415527344 84.81419372558594 177.6844482421875 81.89833068847656 176.0551147460938 78.65455627441406 C 169.8720855712891 66.3450927734375 165.7127075195312 50.7689208984375 162.3705749511719 38.25328063964844 C 160.8062286376953 32.39501953125 159.4333190917969 27.25370788574219 158.0827484130859 23.22093200683594 M 159.5023498535156 21.20545959472656 C 166.9918975830078 42.17642211914062 174.7655639648438 98.85537719726562 203.4459686279297 98.85537719726562 C 210.4939575195312 98.85537719726562 218.8004760742188 95.43601989746094 228.6802062988281 87.22236633300781 C 228.6802062988281 87.22236633300781 309.5237731933594 169.7539978027344 258.2230224609375 182.4916076660156 C 324.060791015625 229.1800994873047 279.4545288085938 243.8350982666016 279.4545288085938 243.8350982666016 L -23.900634765625 243.8350982666016 C -23.900634765625 242.0969543457031 -13.53936767578125 169.1448211669922 36.84072875976562 153.1889953613281 C -2.196014404296875 119.2522735595703 93.30912780761719 21.20545959472656 159.5023498535156 21.20545959472656 Z" stroke="none" fill="#222"/>
          </g>
          <path id="パス_7" data-name="パス 7" d="M0,0H303.353L226.787,243.37H76.567Z" transform="translate(0 222.63)" fill="url(#linear-gradient)"/>
        </g>
        <path id="パス_9" data-name="パス 9" d="M0-.39H1.82L78.383,242.977h-1.82Z" transform="translate(73.941 223.023)" fill="#222"/>
        <path id="パス_10" data-name="パス 10" d="M78.383-.39h-1.82L0,242.977H1.82Z" transform="translate(300.725 223.023)" fill="#222"/>
        <path id="パス_11" data-name="パス 11" d="M0,0H152.042V1.82H0Z" transform="translate(150.503 464.18)" fill="#222"/>
      </g>
    </g>
  </g>
</svg>
