<svg xmlns="http://www.w3.org/2000/svg" width="478.2" height="146.335" viewBox="0 0 478.2 146.335">
  <g id="PRESQUE_POURRIE" data-name="PRESQUE POURRIE" transform="translate(-308.04 -337.04)">
    <path id="RRIE" d="M44-31.25q12.25,0,12.25-7.75a5.559,5.559,0,0,0-2.937-4.937Q50.375-45.75,44-45.75H24.25v14.5ZM44.25-55q11.125,0,17.375,3.688t6.25,12.563a13.794,13.794,0,0,1-1.25,6,15.107,15.107,0,0,1-3.312,4.563,17.765,17.765,0,0,1-4.562,3.125,25.9,25.9,0,0,1-5.125,1.813L65.875-5.375a7.244,7.244,0,0,0,2.188,2.063A10.718,10.718,0,0,0,70.625-2.25V0H51.5V-2.25q1.625,0,1.625-1.125,0-1.25-1.875-3.875L41.375-22H24V-4.125a1.507,1.507,0,0,0,.813,1.438,3.3,3.3,0,0,0,1.563.438V0H9.75V-2.25Q12-2.25,12-4.125v-46.75q0-1.875-2.25-1.875V-55Zm76.125,23.75q12.25,0,12.25-7.75a5.559,5.559,0,0,0-2.937-4.937q-2.938-1.812-9.312-1.812h-19.75v14.5Zm.25-23.75Q131.75-55,138-51.312t6.25,12.563a13.794,13.794,0,0,1-1.25,6,15.107,15.107,0,0,1-3.312,4.563,17.765,17.765,0,0,1-4.562,3.125A25.9,25.9,0,0,1,130-23.25L142.25-5.375a7.244,7.244,0,0,0,2.188,2.063A10.718,10.718,0,0,0,147-2.25V0H127.875V-2.25q1.625,0,1.625-1.125,0-1.25-1.875-3.875L117.75-22H100.375V-4.125a1.507,1.507,0,0,0,.813,1.438,3.3,3.3,0,0,0,1.563.438V0H86.125V-2.25q2.25,0,2.25-1.875v-46.75q0-1.875-2.25-1.875V-55ZM164-2.25a5.984,5.984,0,0,0,2.75-.437,1.534,1.534,0,0,0,.75-1.437v-46.75a1.534,1.534,0,0,0-.75-1.437A5.984,5.984,0,0,0,164-52.75V-55h19v2.25q-3.5,0-3.5,1.875v46.75q0,1.875,3.5,1.875V0H164Zm88.875-41.125q0-2.375-3.875-2.375H218.5v12.5h19.25a11.368,11.368,0,0,0,3.125-.312q1-.312,1-1.687h2.25V-22h-2.5a1.2,1.2,0,0,0-1-1.687A18.48,18.48,0,0,0,236.75-24H218.5V-9.25h32a4.312,4.312,0,0,0,2.5-.687,2.106,2.106,0,0,0,1-1.812h2.25V1.375H254a1.086,1.086,0,0,0-1-1.25A20.728,20.728,0,0,0,250.5,0H204.625V-2.25a2.169,2.169,0,0,0,1.25-.437,1.63,1.63,0,0,0,.625-1.437v-46.75a1.63,1.63,0,0,0-.625-1.437,2.169,2.169,0,0,0-1.25-.437V-55H249q3.875,0,3.875-2.25h2.25v13.875Z" transform="translate(529.25 482)" fill="#969696"/>
    <path id="U" d="M27.125-52.75q-2.75,0-2.75,1.875V-22.25a11.873,11.873,0,0,0,4.375,9.625Q33.125-9,42.125-9T55.5-12.625a11.873,11.873,0,0,0,4.375-9.625V-50.875q0-1.875-3.125-1.875V-55H74.125v2.25q-2.75,0-2.75,1.875V-19.25a16.666,16.666,0,0,1-1.75,7.438A18.04,18.04,0,0,1,64.313-5.5a26.547,26.547,0,0,1-9.125,4.313A48.585,48.585,0,0,1,42.125.375,48.585,48.585,0,0,1,29.063-1.187,26.547,26.547,0,0,1,19.938-5.5a18.04,18.04,0,0,1-5.312-6.312,16.665,16.665,0,0,1-1.75-7.437V-50.875a1.534,1.534,0,0,0-.75-1.437A6.374,6.374,0,0,0,9.25-52.75V-55H27.125Z" transform="translate(445.87 482)" fill="#eff556"/>
    <path id="PO" d="M44.5-32.125a12.671,12.671,0,0,0,6.063-1.312Q53-34.75,53-38.75q0-3.875-2.437-5.437A11.019,11.019,0,0,0,44.5-45.75h-21v13.625Zm-33-18.75q0-1.875-3.125-1.875V-55H44.75q10.125,0,15.188,3.625T65-38.75q0,9-5.062,12.438T44.75-22.875H23.5v18.75q0,1.875,2.625,1.875V0H8.375V-2.25q3.125,0,3.125-1.875ZM107.625-46.5a23.84,23.84,0,0,0-7.812,1.313A22.122,22.122,0,0,0,93-41.437,18.55,18.55,0,0,0,88.188-35.5a17.146,17.146,0,0,0-1.812,8,17.146,17.146,0,0,0,1.813,8A18.55,18.55,0,0,0,93-13.562a22.122,22.122,0,0,0,6.813,3.75A23.84,23.84,0,0,0,107.625-8.5a23.84,23.84,0,0,0,7.813-1.312,22.122,22.122,0,0,0,6.813-3.75,18.55,18.55,0,0,0,4.813-5.937,17.146,17.146,0,0,0,1.813-8,17.146,17.146,0,0,0-1.812-8,18.55,18.55,0,0,0-4.812-5.937,22.122,22.122,0,0,0-6.812-3.75A23.84,23.84,0,0,0,107.625-46.5Zm0-9.25A46.446,46.446,0,0,1,120.563-54a31.008,31.008,0,0,1,10.563,5.25,25.042,25.042,0,0,1,7.125,8.813A27.76,27.76,0,0,1,140.875-27.5a27.76,27.76,0,0,1-2.625,12.438,25.042,25.042,0,0,1-7.125,8.813,28.6,28.6,0,0,1-10.562,5.063A51.68,51.68,0,0,1,107.625.375,51.68,51.68,0,0,1,94.688-1.187,28.6,28.6,0,0,1,84.125-6.25,25.042,25.042,0,0,1,77-15.062,27.76,27.76,0,0,1,74.375-27.5,27.76,27.76,0,0,1,77-39.937a25.042,25.042,0,0,1,7.125-8.812A31.008,31.008,0,0,1,94.688-54,46.446,46.446,0,0,1,107.625-55.75Z" transform="translate(300 482)" fill="#fff"/>
    <path id="E" d="M56.16-41.64q0-2.28-3.72-2.28H23.16v12H41.64a10.913,10.913,0,0,0,3-.3q.96-.3.96-1.62h2.16v12.72h-2.4a1.148,1.148,0,0,0-.96-1.62,17.741,17.741,0,0,0-3.72-.3H23.16V-8.88H53.88a4.139,4.139,0,0,0,2.4-.66,2.022,2.022,0,0,0,.96-1.74H59.4V1.32H57.24a1.042,1.042,0,0,0-.96-1.2A19.9,19.9,0,0,0,53.88,0H9.84V-2.16a2.083,2.083,0,0,0,1.2-.42,1.565,1.565,0,0,0,.6-1.38V-48.84a1.565,1.565,0,0,0-.6-1.38,2.083,2.083,0,0,0-1.2-.42V-52.8h42.6q3.72,0,3.72-2.16h2.16v13.32Z" transform="translate(726.84 392)" fill="#fff"/>
    <path id="U-2" data-name="U" d="M26.04-50.64q-2.64,0-2.64,1.8v27.48a11.4,11.4,0,0,0,4.2,9.24q4.2,3.48,12.84,3.48t12.84-3.48a11.4,11.4,0,0,0,4.2-9.24V-48.84q0-1.8-3-1.8V-52.8H71.16v2.16q-2.64,0-2.64,1.8v30.36a16,16,0,0,1-1.68,7.14,17.318,17.318,0,0,1-5.1,6.06,25.485,25.485,0,0,1-8.76,4.14A46.642,46.642,0,0,1,40.44.36,46.642,46.642,0,0,1,27.9-1.14a25.485,25.485,0,0,1-8.76-4.14,17.318,17.318,0,0,1-5.1-6.06,16,16,0,0,1-1.68-7.14V-48.84a1.472,1.472,0,0,0-.72-1.38,6.12,6.12,0,0,0-2.76-.42V-52.8H26.04Z" transform="translate(646.8 392)" fill="#ef1d66"/>
    <path id="PRESQ" d="M42.72-30.84a12.164,12.164,0,0,0,5.82-1.26q2.34-1.26,2.34-5.1,0-3.72-2.34-5.22a10.578,10.578,0,0,0-5.82-1.5H22.56v13.08Zm-31.68-18q0-1.8-3-1.8V-52.8H42.96q9.72,0,14.58,3.48T62.4-37.2q0,8.64-4.86,11.94t-14.58,3.3H22.56v18q0,1.8,2.52,1.8V0H8.04V-2.16q3,0,3-1.8ZM108.96-30q11.76,0,11.76-7.44a5.337,5.337,0,0,0-2.82-4.74q-2.82-1.74-8.94-1.74H90V-30Zm.24-22.8q10.68,0,16.68,3.54t6,12.06a13.242,13.242,0,0,1-1.2,5.76,14.5,14.5,0,0,1-3.18,4.38,17.054,17.054,0,0,1-4.38,3,24.866,24.866,0,0,1-4.92,1.74L129.96-5.16a6.954,6.954,0,0,0,2.1,1.98,10.289,10.289,0,0,0,2.46,1.02V0H116.16V-2.16q1.56,0,1.56-1.08,0-1.2-1.8-3.72l-9.48-14.16H89.76V-3.96a1.447,1.447,0,0,0,.78,1.38,3.164,3.164,0,0,0,1.5.42V0H76.08V-2.16q2.16,0,2.16-1.8V-48.84q0-1.8-2.16-1.8V-52.8Zm87,11.16q0-2.28-3.72-2.28H163.2v12h18.48a10.913,10.913,0,0,0,3-.3q.96-.3.96-1.62h2.16v12.72h-2.4a1.148,1.148,0,0,0-.96-1.62,17.741,17.741,0,0,0-3.72-.3H163.2V-8.88h30.72a4.139,4.139,0,0,0,2.4-.66,2.022,2.022,0,0,0,.96-1.74h2.16V1.32h-2.16a1.042,1.042,0,0,0-.96-1.2,19.9,19.9,0,0,0-2.4-.12H149.88V-2.16a2.082,2.082,0,0,0,1.2-.42,1.565,1.565,0,0,0,.6-1.38V-48.84a1.565,1.565,0,0,0-.6-1.38,2.082,2.082,0,0,0-1.2-.42V-52.8h42.6q3.72,0,3.72-2.16h2.16v13.32Zm23.88,23.28a9.26,9.26,0,0,1-.06,1.02,10.334,10.334,0,0,0-.06,1.14q0,1.8,2.28,3.3a22.284,22.284,0,0,0,5.46,2.52,52.963,52.963,0,0,0,6.36,1.62,28.667,28.667,0,0,0,4.98.6q1.68,0,4.14-.24a22.866,22.866,0,0,0,4.86-1.02,12.379,12.379,0,0,0,4.08-2.16,4.5,4.5,0,0,0,1.68-3.66q0-2.64-2.94-3.84a32.4,32.4,0,0,0-7.38-1.86q-4.44-.66-9.6-1.32a49.612,49.612,0,0,1-9.6-2.16,19.487,19.487,0,0,1-7.38-4.32q-2.94-2.82-2.94-7.98a14.318,14.318,0,0,1,6.36-12.24q6.36-4.56,17.88-4.56a44.829,44.829,0,0,1,9.66.9,47.17,47.17,0,0,1,6.78,1.98,48.638,48.638,0,0,1,4.5,1.98,6.525,6.525,0,0,0,2.58.9,2.76,2.76,0,0,0,1.44-.3q.48-.3,1.2-.66l1.32,1.32-6,11.28-2.16-.72-.24-1.44a2.451,2.451,0,0,0-1.08-1.44,20.167,20.167,0,0,0-7.44-3.48,41.03,41.03,0,0,0-11.28-1.44,33.157,33.157,0,0,0-4.56.3,14.953,14.953,0,0,0-3.84,1.02,6.955,6.955,0,0,0-2.64,1.86,4.229,4.229,0,0,0-.96,2.82q0,2.64,2.94,3.78a34.94,34.94,0,0,0,7.38,1.8q4.44.66,9.6,1.32a46.819,46.819,0,0,1,9.6,2.22,18.924,18.924,0,0,1,7.38,4.56q2.94,3,2.94,8.28a13.785,13.785,0,0,1-2.58,8.64,18.3,18.3,0,0,1-6.42,5.28,26.363,26.363,0,0,1-8.46,2.52,67.725,67.725,0,0,1-8.7.6,42.428,42.428,0,0,1-8.1-.78,70.077,70.077,0,0,1-7.32-1.8q-3.3-1.02-5.58-1.92a12.542,12.542,0,0,0-2.76-.9,1.817,1.817,0,0,0-1.44.72l-1.68-1.2,5.52-13.44Zm90-26.28a22.887,22.887,0,0,0-7.5,1.26,21.237,21.237,0,0,0-6.54,3.6,17.808,17.808,0,0,0-4.62,5.7,16.46,16.46,0,0,0-1.74,7.68,16.46,16.46,0,0,0,1.74,7.68,17.808,17.808,0,0,0,4.62,5.7,21.237,21.237,0,0,0,6.54,3.6,22.887,22.887,0,0,0,7.5,1.26,15.867,15.867,0,0,0,4.44-.48,33.822,33.822,0,0,0-4.68-5.4,33.3,33.3,0,0,0-3.72-2.94q-1.56-1.02-2.46-1.5t-.9-.96q0-.6,1.26-1.02a11.173,11.173,0,0,1,3.42-.42,12.879,12.879,0,0,1,7.5,2.28,84.169,84.169,0,0,1,7.98,6.48,19.134,19.134,0,0,0,5.46-6,16.128,16.128,0,0,0,2.1-8.28,16.46,16.46,0,0,0-1.74-7.68,17.808,17.808,0,0,0-4.62-5.7,21.237,21.237,0,0,0-6.54-3.6A22.887,22.887,0,0,0,310.08-44.64Zm17.16,54.72q.36-.48.78-1.02a1.993,1.993,0,0,0,.42-1.26q0-1.08-1.92-3.24T321.36-.72A59.852,59.852,0,0,1,310.08.36a49.613,49.613,0,0,1-12.42-1.5A27.459,27.459,0,0,1,287.52-6a24.04,24.04,0,0,1-6.84-8.46,26.649,26.649,0,0,1-2.52-11.94,26.649,26.649,0,0,1,2.52-11.94,24.04,24.04,0,0,1,6.84-8.46,29.768,29.768,0,0,1,10.14-5.04,44.588,44.588,0,0,1,12.42-1.68,44.588,44.588,0,0,1,12.42,1.68,29.768,29.768,0,0,1,10.14,5.04,24.04,24.04,0,0,1,6.84,8.46A26.649,26.649,0,0,1,342-26.4a25.856,25.856,0,0,1-3.18,13.32,23.371,23.371,0,0,1-8.58,8.52q5.88,5.64,7.32,5.64a3.475,3.475,0,0,0,2.4-.6l1.2,1.08L328.2,11.52Z" transform="translate(300 392)" fill="#fff"/>
  </g>
</svg>
